<svg enable-background="new 0 0 140 140" height="512" viewBox="0 0 140 140" width="512" xmlns="http://www.w3.org/2000/svg"><circle cx="70" cy="70" fill="#4abba4" r="64"/><path d="m70.0017014 25.3814392c-13.1000366 0-23.7600098 10.6599121-23.7600098 23.75v20.0097656l3.4661255 3.4660645-.9761353 12.3540039s-1.3099976 12.380127-.4099731 15.75c.3765869 1.407959 1.4691772 2.7009277 2.6209106 3.7248535h-.0006103l3.857605 3.857666-2.7279053 1.5375977v4.7897949l19.3430176 19.3430176c31.6452637-.6887207 57.622261-24.3308105 61.9408646-54.9494629l-45.3782426-45.378418c-4.3579101-5.0488281-10.7963257-8.2548828-17.9756469-8.2548828z" opacity=".1"/><path d="m62.582989 61.648167h14.881786v8.248465h-14.881786z" fill="#467082"/><path d="m93.7553482 69.1379547h-6.424675v-1.1339035h5.2907791v-18.86763c0-12.4739647-10.1474838-22.6225567-22.6214523-22.6225567s-22.6214485 10.148592-22.6214485 22.6225567v18.86763h4.9519348v1.1339035h-6.0858307v-20.0015335c0-13.0996017 10.6568527-23.7564526 23.7553444-23.7564526s23.7553482 10.6568508 23.7553482 23.7564526z" fill="#344d5b"/><g fill="#467082"><path d="m90.9657288 84.959343-1.5358505-19.3858566s-.14991-5.3945885-4.6077728-7.2302475c0 0-1.4235306-.5993385-3.7461319-.2998085h-2.0938034v5.1523628l2.4309845-.0575829s2.6972198.0376511 2.8470535 2.0230751c.1498337 1.9851532 2.2476578 31.7670898 2.2476578 31.7670898s1.5734329 4.495163-5.9562073 5.4316788h-.0000687l-.5351181 4.4204254h2.8024902c2.022728 0 3.9858017-.6984406 5.5378494-1.9956665 1.2851868-1.0738297 2.6015091-2.4997787 3.0210495-4.0727234.8990021-3.3717956-.4121322-15.7527465-.4121322-15.7527465z"/><path d="m48.7298737 84.959343 1.5358505-19.3858566s.1499062-5.3945885 4.607769-7.2302475c0 0 1.4235306-.5993385 3.7461357-.2998085h2.0938034v5.1523628l-2.4309845-.0575829s-2.6972237.0376511-2.8470573 2.0230751c-.1498337 1.9851532-2.247654 31.7670898-2.247654 31.7670898s-1.5734329 4.495163 5.9562073 5.4316788h.0000687l.5351143 4.4204254h-2.8024902c-2.022728 0-3.9858017-.6984406-5.5378494-1.9956665-1.285183-1.0738297-2.6015091-2.4997787-3.0210457-4.0727234-.899006-3.3717956.4121322-15.7527465.4121322-15.7527465z"/><path d="m63.258339 51.601231h13.531081v8.541495h-13.531081z"/></g><path d="m81.4952316 100.7079315h-23.0495681c-.5694389 0-1.030983.4617538-1.030983 1.0311966v5.0787201h25.1115341v-5.0787201c0-.5694427-.4616089-1.0311966-1.030983-1.0311966z" fill="#344d5b"/><path d="m82.5262222 106.8178406h-12.5557708-12.5557747l-5.3468285 3.015892v4.7863007h17.9026032 17.9025955v-4.7863007z" fill="#467082"/><path d="m79.8295288 70.4085236c-.3980713-1.0881195-1.416214-1.8380737-2.5282593-1.8380737h-14.5547867c-1.1120453 0-2.1301842.7499542-2.5282516 1.8380737-2.9454193 8.0508194-3.7382126 17.1600571-1.9249039 27.5511246.2806816 1.6088562 1.3957176 2.7482834 2.7748184 2.7482834h17.9114609c1.379097 0 2.4941406-1.1394272 2.7748871-2.7482834 1.8132706-10.39077 1.0204697-19.5000458-1.9249649-27.5511246z" fill="#ededed"/><path d="m80.3946915 57.4094887h-20.7416306c-.1652679 0-.2992554.1339874-.2992554.2992554v5.525528c0 .1652679.1339874.2992516.2992554.2992516h20.7416306c.1652679 0 .2992554-.1339836.2992554-.2992516v-5.525528c-.0000001-.165268-.1339875-.2992554-.2992554-.2992554z" fill="#344d5b"/><path d="m80.135582 50.0269852-8.8181458-8.8181458c-.7144318-.7145004-1.872757-.7145004-2.5871887 0l-8.8180771 8.8181458c-1.1525116 1.1524429-.336277 3.122921 1.29356 3.122921h17.6362953c1.6298371 0 2.4460679-1.9704781 1.2935563-3.122921z" fill="#344d5b"/><path d="m74.1783371 94.263031s-.4646606-.4645996-.1742554-1.3068848c0 0-.593689.1318359-.7819824 1.1401367-.046936-.6811523-.3206177-1.7902832-1.3671265-3.3764648 0 0-.4647217-1.7636719.2904053-2.5371094 0 0-4.1821289.3588867-4.6467896 5.1218262 0 0-.8712769-.4064941-.5518188-1.5393066 0 0-2.1491699 2.1047363-1.2778931 5.4892578 0 0-.4395142.0605469-.6947021-.5517578 0 0 .8399048 4.6196289 5.2834473 3.9362793 0 0 4.4719238-.2189941 4.6467896-3.6459961-.0000001 0 .3775634-1.5974121-.7260743-2.7299805z" fill="#de594e"/><path d="m70.1626129 100.6617584s2.9925461-.1464539 3.1095657-2.4397507c0 0 .2526474-1.0689163-.4858704-1.8268738 0 0-.3109589-.3109512-.1166077-.8745575 0 0-.602478.1166077-.5636063 1.302124 0 0 .3692551-.9134293-.8745651-2.7986069 0 0-.3109589-1.1801987.1943436-1.697876 0 0-2.7986069.2402725-3.1095581 3.4275742 0 0-.583046-.2720871-.3692627-1.0300446 0 0-1.4381714 1.4083328-.8551331 3.673172 0 0-.1779099.0834274-.4648972-.3692627.0000002.0000002.5620729 3.0915071 3.5355913 2.634102z" fill="#fed35b"/></svg>